<svg width="420" height="210" viewBox="0 0 420 210" fill="none" xmlns="http://www.w3.org/2000/svg" role="img" aria-label="LTM Services logo">
  <g transform="translate(120,8)">
    <!-- Original-style left sweep lines -->
    <path d="M18 60C44 56 70 46 102 30" stroke="#D6B36A" stroke-width="3" stroke-linecap="round"/>
    <path d="M20 68C50 66 78 54 112 36" stroke="#D6B36A" stroke-width="3" stroke-linecap="round"/>
    <path d="M22 76C54 76 86 64 122 44" stroke="#D6B36A" stroke-width="3" stroke-linecap="round"/>
    <path d="M24 84C58 86 92 74 126 54" stroke="#D6B36A" stroke-width="3" stroke-linecap="round"/>
    <path d="M28 92C64 96 98 86 132 66" stroke="#D6B36A" stroke-width="3" stroke-linecap="round"/>

    <!-- Original-style tube-circle cluster on right -->
    <g transform="translate(130,28)" stroke="#D6B36A" stroke-width="3">
      <circle cx="10" cy="10" r="7"/>
      <circle cx="26" cy="10" r="7"/>
      <circle cx="42" cy="10" r="7"/>
      <circle cx="18" cy="24" r="7"/>
      <circle cx="34" cy="24" r="7"/>
      <circle cx="10" cy="38" r="7"/>
      <circle cx="26" cy="38" r="7"/>
      <circle cx="42" cy="38" r="7"/>
      <circle cx="18" cy="52" r="7"/>
      <circle cx="34" cy="52" r="7"/>
    </g>
  </g>

  <text x="210" y="145" text-anchor="middle" font-family="Sora, Outfit, Arial, sans-serif" font-size="76" font-weight="800" letter-spacing="1.5" fill="#F5F7FA">LTM</text>
  <text x="210" y="186" text-anchor="middle" font-family="Outfit, Arial, sans-serif" font-size="36" font-weight="500" letter-spacing="0.4" fill="#D6B36A">Services</text>
</svg>
